<svg width="82" height="83" viewBox="0 0 82 83" fill="none" xmlns="http://www.w3.org/2000/svg">
<path d="M68.997 48.4928C67.1389 55.9463 62.3969 62.3568 55.8136 66.3149C49.2303 70.2731 41.3446 71.4549 33.8903 69.6005C18.3816 65.7292 8.92845 50.0195 12.7928 34.5142C16.6572 19.0055 32.3534 9.53536 47.8518 13.4032C63.398 17.2198 72.8545 32.9773 68.997 48.4962V48.4928Z" stroke="#FF02A9" stroke-width="3.99952"/>
<path d="M32.0328 51.4234L37.8022 28.2779M32.8405 27.0409L47.0883 30.5952C56.3847 32.9124 54.3127 43.807 44.4098 41.3398C55.2601 44.0456 54.156 56.9405 41.319 53.7406C35.0453 52.1731 28.3252 50.5033 28.3252 50.5033M35.1203 39.0259L44.2156 41.2921M39.4549 28.6902L40.6919 23.7319M32.4452 56.7974L33.6822 51.8357M46.066 30.3396L47.303 25.3813M39.0596 58.4467L40.2966 53.485" stroke="#FF02A9" stroke-width="3.99952" stroke-linecap="square" stroke-linejoin="round"/>
</svg>
